<?xml version="1.0" standalone="no"?>
<!DOCTYPE svg PUBLIC "-//W3C//DTD SVG 20010904//EN"
 "http://www.w3.org/TR/2001/REC-SVG-20010904/DTD/svg10.dtd">
<svg version="1.0" xmlns="http://www.w3.org/2000/svg"
 width="300.000000pt" height="231.000000pt" viewBox="0 0 300.000000 231.000000"
 preserveAspectRatio="xMidYMid meet">
<metadata>
Created by potrace 1.10, written by Peter Selinger 2001-2011
</metadata>
<g transform="translate(0.000000,231.000000) scale(0.100000,-0.100000)"
fill="#000000" stroke="none">
<path d="M156 2158 c-4 -19 -2 -34 5 -39 14 -8 24 -84 13 -107 -4 -9 -6 -27
-5 -39 1 -12 -8 -41 -20 -65 -33 -64 -28 -100 20 -143 43 -40 66 -92 57 -130
-4 -14 0 -40 8 -59 8 -20 10 -38 5 -43 -5 -5 10 -29 37 -58 80 -89 95 -111 92
-141 -2 -20 2 -29 12 -29 30 0 72 -37 66 -58 -3 -11 2 -33 9 -48 8 -15 13 -34
10 -41 -7 -19 39 -68 72 -77 33 -9 42 -37 18 -55 -22 -16 -11 -81 16 -100 19
-13 79 -91 79 -102 0 -4 17 -23 38 -42 20 -20 38 -40 38 -46 1 -6 2 -16 3 -23
0 -6 10 -14 20 -18 16 -5 19 -15 18 -66 0 -48 3 -62 19 -73 18 -12 112 -28
160 -27 21 1 64 -32 64 -48 0 -15 76 -40 100 -34 25 7 40 -10 40 -44 0 -15 6
-23 18 -24 9 -1 24 -2 33 -3 20 -1 103 -71 125 -104 9 -14 18 -46 20 -71 1
-25 7 -47 13 -49 6 -2 11 -11 11 -19 0 -13 9 -14 53 -9 28 3 131 13 227 21
140 12 177 19 188 32 18 24 15 51 -7 63 -21 11 -26 65 -8 77 6 4 8 0 5 -9 -12
-30 9 -43 77 -44 61 -2 83 7 50 19 -10 4 -15 25 -17 70 -3 64 -3 64 -28 54
-20 -8 -22 -11 -7 -14 13 -4 17 -15 17 -59 l0 -54 -35 0 c-35 0 -35 0 -35 44
0 24 -3 57 -6 74 -5 27 -1 36 30 67 41 39 44 50 17 64 -10 6 -24 25 -32 43 -7
18 -19 39 -26 46 -7 7 -13 22 -13 31 0 10 -20 37 -44 59 -27 25 -40 43 -33 46
9 5 9 8 0 12 -9 4 -13 28 -13 68 l0 62 -74 0 c-88 1 -71 -11 -294 202 -127
120 -156 152 -138 152 13 0 34 9 47 21 21 18 21 20 4 14 -64 -23 -95 -13 -95
31 0 22 4 24 55 24 59 0 63 4 39 38 -20 29 -76 30 -105 1 -15 -15 -20 -30 -17
-55 l4 -34 -23 22 c-15 14 -23 33 -23 56 0 32 -2 33 -28 27 -24 -5 -38 4 -106
67 l-79 72 7 328 8 328 -375 0 -374 0 -7 -32z m734 -193 c0 -130 -4 -205 -10
-205 -6 0 -10 42 -10 106 0 105 0 105 -22 99 -31 -10 -46 -25 -25 -25 15 0 17
-12 17 -91 l0 -90 -32 3 c-33 3 -33 3 -33 56 0 58 -18 82 -60 82 -26 0 -65
-27 -65 -46 0 -22 27 -17 33 7 8 29 61 23 65 -7 3 -18 -3 -22 -39 -27 -50 -7
-74 -27 -65 -55 9 -29 40 -36 75 -19 22 11 32 12 41 3 6 -6 36 -11 67 -11 l55
0 -1 -110 -2 -111 100 -93 c90 -82 101 -96 101 -127 0 -24 -5 -34 -15 -34 -8
0 -15 -4 -15 -10 0 -5 18 -10 40 -10 40 0 53 13 25 24 -14 5 -22 36 -9 36 3 0
90 -80 192 -179 103 -98 202 -191 220 -206 29 -24 31 -30 18 -37 -18 -10 -22
-53 -5 -63 7 -5 5 -13 -6 -25 -14 -15 -14 -18 0 -30 14 -11 14 -14 -1 -24 -23
-18 -14 -48 19 -59 49 -16 127 11 127 43 0 20 -33 39 -80 45 -55 8 -66 32 -13
27 17 -2 34 1 38 7 8 13 65 -27 65 -46 0 -7 5 -13 12 -13 19 0 108 -92 108
-112 0 -9 5 -20 11 -23 10 -7 31 -50 33 -68 1 -5 12 -17 26 -27 l24 -18 -27
-13 c-16 -7 -32 -26 -39 -46 -9 -24 -17 -32 -29 -28 -20 7 -66 -13 -73 -31 -9
-24 16 -27 34 -4 20 27 54 23 58 -6 2 -17 -4 -22 -33 -27 -44 -7 -65 -23 -65
-48 0 -21 35 -43 56 -35 9 4 14 -2 14 -15 0 -13 8 -23 20 -26 13 -3 20 -12 18
-22 -4 -18 -37 -24 -278 -45 -140 -12 -156 -12 -167 3 -7 9 -13 27 -13 40 0
35 -36 104 -68 132 -48 43 -90 69 -109 69 -13 0 -22 11 -28 32 -10 34 -8 33
-88 37 -10 1 -29 12 -43 26 -44 44 -67 54 -146 61 -43 4 -83 12 -88 19 -6 7
-11 38 -11 69 -1 52 -9 70 -34 71 -5 0 -9 9 -7 19 2 12 -12 33 -37 58 -23 21
-41 40 -41 43 0 12 -72 104 -85 109 -17 6 -21 61 -5 71 16 10 12 61 -7 76 -9
8 -24 13 -33 11 -20 -3 -53 41 -56 76 -2 13 -8 30 -15 38 -17 20 -2 17 32 -7
28 -20 69 -19 69 1 0 5 -7 7 -15 4 -11 -4 -19 3 -26 25 -6 17 -15 31 -19 31
-18 0 -14 36 5 52 20 17 20 17 -7 18 -14 0 -34 3 -44 7 -15 5 -16 2 -11 -26 6
-28 5 -30 -11 -21 -37 21 -52 38 -52 57 0 18 -46 78 -108 140 -13 13 -21 27
-18 31 3 5 -1 26 -9 47 -7 22 -11 54 -8 71 7 40 -19 95 -63 137 -39 36 -42 62
-14 117 11 22 22 62 24 90 3 27 7 54 10 59 3 5 -1 28 -9 51 -27 76 -54 70 340
70 l355 0 0 -205z m-140 -164 c0 -23 -56 -49 -72 -33 -16 16 -3 40 24 45 43 8
48 7 48 -12z m498 -432 c2 -11 -7 -15 -33 -16 -38 -1 -45 10 -17 26 23 14 46
9 50 -10z m339 -511 c30 -28 29 -40 -4 -36 -22 2 -29 9 -31 31 -4 33 4 34 35
5z m113 -30 l0 -52 -29 28 c-16 15 -31 39 -34 52 -4 21 -1 24 29 24 l34 0 0
-52z m-87 -82 c30 -7 36 -30 11 -40 -23 -9 -67 -7 -83 3 -19 12 4 54 27 47 9
-2 29 -7 45 -10z m189 -418 c-7 -7 -12 -20 -12 -30 0 -21 -23 -24 -39 -4 -8
10 -8 16 1 23 26 21 69 30 50 11z"/>
<path d="M385 2086 c-111 -50 -141 -200 -57 -290 48 -51 124 -70 189 -45 29
11 93 67 93 81 0 14 -28 9 -33 -6 -7 -18 -87 -56 -118 -56 -61 0 -129 81 -129
155 0 41 33 109 61 129 55 38 140 11 174 -55 15 -29 35 -39 35 -18 0 25 -32
119 -41 119 -5 0 -9 -7 -9 -15 0 -14 -3 -14 -30 0 -36 18 -95 19 -135 1z"/>
<path d="M645 1595 c-16 -9 -36 -23 -42 -32 -14 -18 -17 -61 -7 -88 6 -15 73
-55 93 -55 6 0 35 -9 66 -21 67 -25 81 -55 44 -95 -46 -49 -149 -21 -184 51
-9 20 -21 33 -26 29 -10 -6 -8 -28 7 -106 6 -29 24 -39 24 -13 0 19 19 19 44
0 12 -9 42 -15 73 -15 44 0 58 5 88 31 27 24 35 39 35 64 0 65 -17 79 -138
116 -79 25 -92 34 -92 65 0 28 35 54 74 54 36 0 88 -32 106 -65 18 -34 44 -34
36 1 -4 15 -10 39 -13 55 -5 26 -33 42 -33 20 0 -6 -16 -3 -35 5 -44 18 -82
18 -120 -1z"/>
<path d="M921 1381 c-44 -44 -11 -131 50 -131 29 0 72 27 64 41 -4 5 -13 3
-21 -6 -18 -18 -55 -20 -72 -3 -17 17 -15 74 4 92 21 22 40 20 58 -6 18 -25
36 -16 20 10 -17 26 -78 28 -103 3z"/>
<path d="M950 1091 c0 -5 10 -11 23 -13 22 -3 22 -5 22 -148 0 -143 0 -145
-22 -148 -13 -2 -23 -10 -23 -18 0 -11 26 -14 148 -14 l148 0 17 48 c20 56 22
65 9 70 -5 1 -19 -13 -30 -32 -24 -41 -72 -59 -147 -54 l-50 3 -3 68 -3 67 39
0 c43 0 62 -14 62 -47 0 -14 5 -21 13 -18 17 7 18 155 0 155 -7 0 -13 -8 -13
-18 0 -28 -21 -42 -62 -42 l-38 0 0 63 0 64 78 -5 c59 -3 82 -9 100 -25 12
-11 22 -26 22 -34 0 -15 16 -18 24 -4 3 4 -2 27 -11 50 l-16 41 -144 0 c-81 0
-143 -4 -143 -9z"/>
<path d="M1315 890 c-17 -7 -17 -9 -2 -9 14 -1 17 -11 17 -56 0 -30 -4 -55
-10 -55 -5 0 -10 -4 -10 -10 0 -5 18 -10 40 -10 22 0 40 5 40 10 0 6 -7 10
-15 10 -11 0 -15 12 -15 45 0 38 4 47 24 57 41 18 56 5 56 -52 0 -38 -4 -50
-15 -50 -8 0 -15 -4 -15 -10 0 -5 18 -10 40 -10 22 0 40 5 40 10 0 6 -4 10
-10 10 -5 0 -10 21 -10 46 0 25 -5 54 -10 65 -12 21 -50 25 -81 9 -13 -7 -19
-7 -19 0 0 12 -17 12 -45 0z"/>
<path d="M1400 604 c0 -7 10 -14 23 -16 22 -3 22 -5 22 -148 0 -143 0 -145
-22 -148 -13 -2 -23 -9 -23 -15 0 -8 23 -12 70 -12 47 0 70 4 70 12 0 6 -10
13 -22 15 -21 3 -23 9 -26 71 l-3 67 31 0 c45 0 70 -17 70 -45 0 -14 6 -25 13
-25 9 0 12 22 12 80 0 58 -3 80 -12 80 -7 0 -13 -9 -13 -19 0 -30 -28 -51 -66
-51 l-34 0 0 70 0 70 54 0 c72 0 102 -12 126 -52 25 -42 36 -18 17 37 l-14 40
-137 1 c-106 1 -136 -1 -136 -12z"/>
<path d="M937 1963 c-4 -3 -7 -12 -7 -20 0 -15 26 -18 34 -4 7 11 -18 33 -27
24z"/>
<path d="M1048 1959 c-11 -6 -18 -22 -18 -39 0 -19 -6 -30 -17 -33 -17 -4 -17
-5 0 -6 14 -1 17 -11 17 -56 0 -41 -4 -56 -17 -64 -14 -8 -8 -10 27 -10 35 0
41 2 28 10 -14 8 -18 23 -18 64 0 43 4 54 18 58 16 4 16 5 0 6 -12 1 -18 9
-18 25 0 31 16 42 36 25 12 -9 18 -9 27 0 24 24 -31 40 -65 20z"/>
<path d="M1633 1954 c-7 -19 2 -28 22 -21 19 8 19 23 0 31 -9 3 -18 -1 -22
-10z"/>
<path d="M924 1885 c-17 -13 -17 -14 -1 -15 14 0 17 -9 17 -50 0 -36 -5 -52
-17 -59 -14 -8 -8 -10 27 -10 25 1 37 3 28 6 -15 4 -18 16 -18 74 0 38 -4 69
-8 69 -5 0 -17 -7 -28 -15z"/>
<path d="M1125 1875 c-16 -15 -25 -36 -25 -55 0 -38 39 -80 75 -80 36 0 75 42
75 80 0 38 -39 80 -75 80 -14 0 -37 -11 -50 -25z m89 -27 c14 -40 -3 -82 -34
-86 -29 -5 -50 21 -50 59 0 59 66 79 84 27z"/>
<path d="M1293 1892 c-25 -4 -32 -22 -8 -22 22 0 21 -96 -2 -108 -12 -7 -7
-11 25 -14 42 -3 56 5 27 16 -20 7 -20 79 -1 96 8 6 25 10 37 8 12 -2 24 3 26
9 7 21 -25 26 -51 9 -18 -11 -25 -12 -28 -3 -2 6 -13 11 -25 9z"/>
<path d="M1428 1893 c-19 -5 -25 -23 -8 -23 6 0 10 -25 10 -55 0 -30 -4 -55
-10 -55 -5 0 -10 -3 -10 -8 0 -4 19 -5 43 -3 23 3 34 6 25 9 -14 3 -18 14 -18
51 0 41 3 49 25 59 42 19 55 6 55 -53 0 -43 -4 -54 -17 -58 -10 -3 5 -5 32 -5
28 0 42 2 33 5 -14 4 -18 15 -18 58 0 78 -36 106 -88 69 -20 -14 -22 -14 -22
0 0 16 -2 17 -32 9z"/>
<path d="M1628 1893 c-22 -5 -24 -23 -3 -23 23 0 21 -96 -2 -109 -14 -8 -8
-10 27 -10 35 0 41 2 28 10 -14 8 -18 24 -18 74 0 36 -3 64 -7 64 -5 -1 -16
-3 -25 -6z"/>
<path d="M1730 1880 c-12 -12 -18 -25 -15 -30 10 -16 23 -11 30 11 9 28 59 23
63 -7 3 -18 -3 -22 -40 -27 -38 -5 -68 -27 -68 -49 0 -4 11 -15 25 -24 21 -14
30 -14 54 -4 21 8 35 9 49 1 26 -14 42 -14 42 -1 0 6 -7 10 -15 10 -11 0 -15
13 -15 53 0 40 -5 58 -18 70 -25 23 -68 21 -92 -3z m80 -80 c0 -26 -46 -46
-66 -29 -21 17 -17 26 14 37 41 16 52 14 52 -8z"/>
<path d="M2400 1464 c-19 -10 -21 -13 -7 -14 12 0 17 -8 17 -29 0 -28 -1 -29
-38 -24 -34 4 -42 1 -60 -22 -28 -35 -28 -65 -1 -99 22 -28 48 -33 80 -16 13
7 19 7 19 0 0 -5 11 -10 25 -10 14 0 25 5 25 10 0 6 -4 10 -10 10 -6 0 -10 40
-10 99 0 55 -3 102 -8 105 -4 2 -18 -2 -32 -10z m-6 -87 c13 -9 17 -23 14 -52
-2 -33 -8 -41 -31 -50 -24 -8 -31 -6 -43 10 -20 27 -17 62 6 85 23 23 30 24
54 7z"/>
<path d="M1076 1461 c-7 -11 18 -33 27 -24 4 3 7 12 7 20 0 15 -26 18 -34 4z"/>
<path d="M1320 1390 c-10 -6 -11 -10 -2 -10 8 0 12 -18 12 -55 0 -30 -4 -55
-10 -55 -5 0 -10 -4 -10 -10 0 -5 18 -10 40 -10 22 0 40 5 40 10 0 6 -7 10
-15 10 -11 0 -15 12 -15 45 0 38 4 47 24 57 41 18 56 5 56 -52 0 -38 -4 -50
-15 -50 -8 0 -15 -4 -15 -10 0 -5 18 -10 40 -10 22 0 40 5 40 10 0 6 -4 10
-10 10 -5 0 -10 24 -10 53 0 29 -5 58 -12 65 -15 15 -53 16 -79 2 -13 -7 -19
-7 -19 0 0 13 -20 13 -40 0z"/>
<path d="M1531 1374 c-11 -15 -21 -38 -21 -51 0 -33 42 -73 77 -73 31 1 63 21
63 40 0 9 -5 8 -18 -3 -55 -50 -120 19 -76 81 19 28 38 28 64 0 22 -24 40 -17
24 10 -7 10 -27 18 -51 20 -34 3 -44 -1 -62 -24z"/>
<path d="M1704 1392 c-16 -10 -34 -48 -34 -70 0 -11 9 -31 21 -46 26 -33 77
-36 105 -4 19 21 19 21 -1 13 -61 -24 -95 -11 -95 37 0 15 9 18 55 18 59 0 63
4 39 38 -15 22 -66 30 -90 14z m64 -14 c20 -20 14 -26 -23 -25 -47 1 -46 33 1
36 5 1 15 -4 22 -11z"/>
<path d="M1931 1386 c-8 -9 -11 -23 -7 -32 7 -17 26 -10 26 11 0 19 38 29 55
15 22 -18 18 -40 -5 -40 -37 0 -90 -28 -90 -47 0 -26 19 -43 50 -43 14 0 31 5
38 12 9 9 15 9 24 0 14 -14 58 -16 58 -3 0 5 -9 11 -19 14 -16 4 -20 15 -23
63 l-3 59 -46 3 c-32 2 -50 -2 -58 -12z m89 -76 c0 -23 -40 -46 -64 -37 -27
11 -18 36 17 46 46 13 47 13 47 -9z"/>
<path d="M2095 1390 c-17 -7 -17 -9 -2 -9 14 -1 17 -11 17 -56 0 -30 -4 -55
-10 -55 -5 0 -10 -4 -10 -10 0 -5 18 -10 40 -10 22 0 40 5 40 10 0 6 -7 10
-15 10 -11 0 -15 12 -15 44 0 49 17 69 52 64 20 -3 23 -9 26 -55 2 -43 0 -53
-12 -53 -9 0 -16 -4 -16 -10 0 -5 18 -10 40 -10 22 0 40 5 40 10 0 6 -4 10
-10 10 -5 0 -10 24 -10 53 0 29 -5 58 -12 65 -15 15 -53 16 -79 2 -13 -7 -19
-7 -19 0 0 12 -17 12 -45 0z"/>
<path d="M1696 961 c-7 -11 18 -33 27 -24 4 3 7 12 7 20 0 15 -26 18 -34 4z"/>
<path d="M2446 961 c-7 -11 18 -33 27 -24 4 3 7 12 7 20 0 15 -26 18 -34 4z"/>
<path d="M1780 890 c-10 -6 -11 -10 -2 -10 8 0 12 -18 12 -55 0 -30 -4 -55
-10 -55 -5 0 -10 -4 -10 -10 0 -5 18 -10 40 -10 22 0 40 5 40 10 0 6 -7 10
-15 10 -11 0 -15 12 -15 45 0 38 4 47 24 57 41 18 56 5 56 -52 0 -38 -4 -50
-15 -50 -8 0 -15 -4 -15 -10 0 -5 21 -10 48 -10 41 1 45 2 30 14 -13 9 -18 27
-18 63 0 27 -5 54 -12 61 -15 15 -53 16 -79 2 -13 -7 -19 -7 -19 0 0 13 -20
13 -40 0z"/>
<path d="M1991 874 c-12 -15 -21 -37 -21 -49 0 -12 9 -34 21 -49 26 -33 77
-36 104 -6 10 11 13 20 7 20 -6 0 -14 -4 -17 -10 -11 -18 -64 -11 -75 9 -22
42 -14 51 45 51 59 0 63 4 39 38 -22 32 -76 30 -103 -4z m77 4 c20 -20 14 -28
-23 -28 -19 0 -35 4 -35 8 0 12 22 32 35 32 6 0 16 -5 23 -12z"/>
<path d="M2151 874 c-12 -15 -21 -37 -21 -49 0 -12 9 -34 21 -49 26 -33 77
-36 104 -6 10 11 13 20 7 20 -6 0 -14 -4 -17 -10 -11 -18 -64 -11 -75 9 -22
42 -14 51 45 51 59 0 63 4 39 38 -22 32 -76 30 -103 -4z m77 4 c20 -20 14 -28
-23 -28 -19 0 -35 4 -35 8 0 12 22 32 35 32 6 0 16 -5 23 -12z"/>
<path d="M2300 890 c-13 -8 -12 -10 3 -10 14 0 17 -9 17 -50 0 -36 -4 -52 -15
-56 -28 -11 -15 -24 25 -24 22 0 40 5 40 10 0 6 -7 10 -15 10 -19 0 -21 83 -2
97 6 5 31 10 55 11 l42 1 0 -55 c0 -41 -4 -54 -15 -54 -8 0 -15 -4 -15 -10 0
-5 18 -10 40 -10 22 0 40 5 40 10 0 6 -4 10 -10 10 -6 0 -10 28 -10 63 l0 63
-57 1 c-32 0 -64 -4 -70 -9 -9 -7 -13 -7 -13 1 0 13 -20 14 -40 1z"/>
<path d="M2530 890 c-10 -6 -11 -10 -2 -10 8 0 12 -18 12 -55 0 -30 -4 -55
-10 -55 -5 0 -10 -4 -10 -10 0 -5 18 -10 40 -10 22 0 40 5 40 10 0 6 -7 10
-15 10 -11 0 -15 12 -15 45 0 38 4 47 24 57 41 18 56 5 56 -52 0 -38 -4 -50
-15 -50 -8 0 -15 -4 -15 -10 0 -5 18 -10 40 -10 22 0 40 5 40 10 0 6 -4 10
-10 10 -5 0 -10 24 -10 53 0 29 -5 58 -12 65 -15 15 -53 16 -79 2 -13 -7 -19
-7 -19 0 0 13 -20 13 -40 0z"/>
<path d="M2745 884 c-17 -17 -20 -50 -5 -59 6 -4 5 -13 -2 -25 -9 -14 -9 -22
0 -33 10 -12 9 -16 -3 -21 -39 -15 2 -66 54 -66 35 0 80 22 87 43 9 28 -17 45
-78 53 -29 4 -47 11 -45 18 2 6 15 10 30 8 40 -5 67 14 67 48 0 20 5 30 15 30
8 0 15 4 15 9 0 16 -118 12 -135 -5z m75 -9 c6 -8 9 -23 5 -35 -10 -31 -59
-24 -63 9 -6 37 34 55 58 26z m-4 -125 c28 0 44 -28 23 -41 -20 -13 -73 -11
-87 3 -15 15 4 52 25 44 8 -3 26 -6 39 -6z"/>
<path d="M1910 465 c0 -8 9 -15 20 -15 11 0 20 7 20 15 0 8 -9 15 -20 15 -11
0 -20 -7 -20 -15z"/>
<path d="M2000 407 c-20 -8 -22 -11 -7 -14 25 -6 25 -113 0 -113 -9 0 -13 -3
-9 -7 11 -11 75 -13 81 -2 4 5 -1 9 -10 9 -13 0 -15 10 -13 53 3 52 3 52 36
51 21 -1 32 3 32 11 0 23 -18 27 -51 10 -17 -9 -28 -12 -25 -7 10 16 -7 21
-34 9z"/>
</g>
</svg>
