<?xml version="1.0" standalone="no"?>
<!DOCTYPE svg PUBLIC "-//W3C//DTD SVG 20010904//EN"
 "http://www.w3.org/TR/2001/REC-SVG-20010904/DTD/svg10.dtd">
<svg version="1.0" xmlns="http://www.w3.org/2000/svg"
 width="300.000000pt" height="47.000000pt" viewBox="0 0 300.000000 47.000000"
 preserveAspectRatio="xMidYMid meet">
<metadata>
Created by potrace 1.10, written by Peter Selinger 2001-2011
</metadata>
<g transform="translate(0.000000,47.000000) scale(0.100000,-0.100000)"
fill="#000000" stroke="none">
<path d="M946 356 c-8 -39 -8 -46 3 -46 5 0 11 10 13 23 3 19 10 22 51 25 l48
3 -3 -123 c-3 -119 -4 -123 -25 -126 -49 -7 -19 -22 43 -22 41 0 63 4 59 10
-3 6 -13 10 -21 10 -11 0 -14 23 -14 125 l0 125 45 0 c41 0 45 -2 45 -25 0
-14 5 -25 10 -25 6 0 10 17 10 38 l0 37 -129 0 -129 0 -6 -29z"/>
<path d="M23 369 c15 -9 17 -26 17 -133 0 -118 -1 -123 -23 -134 -18 -9 -12
-11 41 -11 40 -1 61 3 57 9 -3 5 -13 10 -21 10 -11 0 -14 14 -14 60 l0 60 81
0 c70 0 80 -2 75 -16 -3 -9 -6 -36 -6 -60 0 -37 -3 -44 -19 -44 -11 0 -23 -4
-26 -10 -4 -6 20 -10 64 -10 76 0 86 5 46 20 -25 9 -25 11 -25 124 0 107 1
116 22 130 21 15 19 16 -42 15 -49 0 -60 -2 -42 -9 18 -8 22 -17 22 -49 0 -22
3 -46 6 -55 5 -14 -5 -16 -75 -16 l-81 0 0 55 c0 48 3 57 23 65 17 7 8 9 -38
9 -45 0 -56 -2 -42 -10z"/>
<path d="M378 368 c21 -10 22 -17 22 -112 0 -112 9 -134 60 -161 37 -19 73
-19 111 1 43 22 59 68 59 172 0 82 2 90 23 100 18 9 12 11 -38 11 -50 0 -56
-2 -37 -11 21 -10 22 -17 22 -113 0 -93 -2 -103 -23 -123 -32 -30 -81 -29
-112 3 -23 22 -25 31 -25 125 0 95 1 101 23 110 16 6 6 9 -43 9 -54 0 -61 -2
-42 -11z"/>
<path d="M730 367 c24 -12 25 -16 28 -126 3 -108 -6 -150 -28 -136 -5 3 -11 1
-15 -5 -4 -6 30 -10 97 -10 l104 0 11 30 c13 34 4 40 -15 9 -11 -17 -21 -20
-65 -17 l-52 3 -3 105 c-4 131 0 147 36 153 15 2 -7 5 -48 5 -66 2 -72 0 -50
-11z"/>
<path d="M1730 371 c0 -5 8 -8 18 -7 15 1 17 -12 20 -126 3 -126 2 -128 -19
-128 -12 0 -19 -3 -16 -6 10 -10 127 -13 127 -3 0 5 -11 9 -25 9 -23 0 -25 3
-25 53 l0 52 39 0 c70 1 112 49 97 110 -10 38 -54 55 -141 55 -41 0 -75 -4
-75 -9z m153 -13 c48 -36 17 -128 -44 -128 l-29 0 0 70 0 70 28 0 c16 0 36 -6
45 -12z"/>
<path d="M1970 370 c0 -5 9 -10 20 -10 19 0 20 -7 20 -125 0 -118 -1 -125 -20
-125 -11 0 -20 -3 -20 -7 0 -5 29 -8 65 -8 63 0 89 10 43 17 -20 3 -23 10 -26
51 -3 47 -3 47 28 47 25 0 45 -12 90 -56 47 -45 67 -57 101 -61 30 -4 40 -3
35 5 -4 7 -14 12 -22 12 -8 0 -43 26 -77 58 l-62 58 27 23 c39 31 37 71 -3
105 -28 23 -39 26 -115 26 -49 0 -84 -4 -84 -10z m167 -26 c20 -20 24 -31 19
-57 -8 -41 -22 -53 -68 -60 l-38 -6 0 75 0 74 30 0 c20 0 40 -9 57 -26z"/>
<path d="M2330 370 c0 -5 7 -10 15 -10 13 0 15 -21 15 -125 0 -104 -2 -125
-15 -125 -8 0 -15 -3 -15 -7 0 -5 25 -8 55 -9 55 0 72 9 35 19 -19 5 -20 14
-20 122 0 108 1 117 20 122 39 10 19 23 -35 23 -30 0 -55 -4 -55 -10z"/>
<path d="M2490 345 c0 -41 7 -45 20 -10 9 24 14 25 85 25 l75 0 -92 -117 c-50
-65 -95 -124 -101 -131 -7 -9 18 -12 122 -12 l131 0 -1 43 -1 42 -13 -31 c-14
-31 -16 -31 -97 -36 -46 -3 -85 -4 -87 -2 -2 1 39 57 90 124 52 66 96 125 97
130 2 6 -41 10 -112 10 l-116 0 0 -35z"/>
<path d="M2760 370 c0 -5 9 -10 20 -10 19 0 20 -7 20 -125 l0 -125 -25 0 c-14
0 -25 -5 -25 -11 0 -8 11 -9 31 -5 17 3 71 6 120 6 l89 0 0 38 c-1 37 -1 37
-14 12 -12 -20 -24 -26 -64 -30 -28 -3 -55 -4 -61 -2 -6 2 -11 28 -11 58 l0
54 45 0 c31 0 47 -5 51 -15 11 -29 20 -15 18 28 -4 55 -4 56 -14 30 -8 -19
-17 -23 -55 -23 l-45 0 0 55 0 55 55 0 c50 0 55 -2 61 -25 3 -14 11 -25 16
-25 6 0 7 7 4 16 -3 9 -6 24 -6 35 0 18 -8 19 -105 19 -63 0 -105 -4 -105 -10z"/>
<path d="M1414 346 c-7 -19 3 -36 22 -36 10 0 14 8 12 22 -4 26 -26 36 -34 14z"/>
<path d="M1497 354 c-15 -15 -7 -45 11 -42 9 2 17 12 17 22 0 20 -16 31 -28
20z"/>
<path d="M1354 285 c-4 -9 -2 -21 4 -27 15 -15 44 -1 40 19 -4 23 -36 29 -44
8z"/>
<path d="M1544 285 c-4 -9 -2 -21 4 -27 15 -15 44 -1 40 19 -4 23 -36 29 -44
8z"/>
<path d="M1354 205 c-4 -9 -2 -21 4 -27 15 -15 44 -1 40 19 -4 23 -36 29 -44
8z"/>
<path d="M1544 205 c-4 -9 -2 -21 4 -27 15 -15 44 -1 40 19 -4 23 -36 29 -44
8z"/>
<path d="M1413 144 c-7 -18 11 -39 26 -30 17 11 13 46 -4 46 -9 0 -18 -7 -22
-16z"/>
<path d="M1493 144 c-8 -21 13 -42 28 -27 13 13 5 43 -11 43 -6 0 -13 -7 -17
-16z"/>
</g>
</svg>
