<?xml version="1.0" standalone="no"?>
<!DOCTYPE svg PUBLIC "-//W3C//DTD SVG 20010904//EN"
 "http://www.w3.org/TR/2001/REC-SVG-20010904/DTD/svg10.dtd">
<svg version="1.0" xmlns="http://www.w3.org/2000/svg"
 width="259.000000pt" height="148.000000pt" viewBox="0 0 259.000000 148.000000"
 preserveAspectRatio="xMidYMid meet">
<metadata>
Created by potrace 1.10, written by Peter Selinger 2001-2011
</metadata>
<g transform="translate(0.000000,148.000000) scale(0.100000,-0.100000)"
fill="#000000" stroke="none">
<path d="M227 1043 c-4 -3 -7 -98 -7 -209 l0 -203 210 -3 210 -3 0 93 0 94
-51 49 c-28 27 -55 49 -61 49 -6 0 -9 -31 -7 -82 l4 -83 -92 -3 -93 -3 0 95 0
95 87 3 86 3 -54 58 -55 57 -85 0 c-47 0 -89 -3 -92 -7z m187 -44 c36 -29 33
-39 -14 -39 -31 0 -47 -7 -66 -26 -24 -23 -26 -30 -23 -103 5 -106 10 -111
120 -111 79 0 89 2 103 22 9 12 16 42 16 65 0 50 10 54 39 17 17 -21 21 -41
21 -95 l0 -68 -152 -3 c-84 -2 -165 -1 -180 1 l-28 3 0 172 c0 95 3 176 7 179
3 4 34 7 68 7 48 0 68 -5 89 -21z"/>
<path d="M520 990 l0 -60 60 0 60 0 0 60 0 60 -60 0 -60 0 0 -60z"/>
<path d="M760 778 l0 -153 26 0 26 0 -4 118 c-2 64 -1 117 2 117 3 0 19 -53
36 -117 27 -103 33 -118 50 -115 26 5 27 9 60 131 l29 106 3 -121 3 -121 24 5
25 4 0 149 0 149 -43 0 -44 0 -24 -105 c-13 -58 -27 -105 -31 -105 -3 0 -11
24 -18 53 -7 28 -19 76 -27 105 -14 51 -15 52 -54 52 l-39 0 0 -152z"/>
<path d="M1100 905 c0 -21 5 -25 30 -25 25 0 30 4 30 25 0 21 -5 25 -30 25
-25 0 -30 -4 -30 -25z"/>
<path d="M1220 781 l0 -149 25 -4 25 -5 0 153 0 154 -25 0 -25 0 0 -149z"/>
<path d="M1340 777 c0 -153 0 -154 23 -152 22 2 22 4 25 153 l3 152 -26 0 -25
0 0 -153z"/>
<path d="M1450 905 c0 -21 5 -25 30 -25 25 0 30 4 30 25 0 21 -5 25 -30 25
-25 0 -30 -4 -30 -25z"/>
<path d="M1100 741 l0 -109 30 -4 30 -5 0 114 0 113 -30 0 -30 0 0 -109z"/>
<path d="M1450 737 l0 -114 28 4 27 5 -2 106 -1 107 -26 3 -26 3 0 -114z"/>
<path d="M1560 742 c0 -60 2 -111 5 -114 3 -3 17 -3 31 0 24 4 25 5 18 77 -6
71 -6 73 20 90 43 29 58 7 55 -84 -2 -80 -1 -81 32 -81 19 0 20 5 18 77 -2 69
0 78 19 91 18 12 25 12 38 2 12 -11 15 -31 13 -94 -2 -79 -2 -80 22 -80 23 0
24 2 27 80 1 44 -2 93 -7 107 -14 35 -55 46 -94 23 -27 -15 -31 -15 -47 -1
-21 19 -50 19 -78 -1 -20 -14 -22 -14 -22 0 0 10 -9 16 -25 16 l-25 0 0 -108z"/>
<path d="M1927 832 c-27 -18 -27 -19 -9 -36 17 -15 20 -15 32 -1 19 23 64 15
68 -11 3 -18 -4 -22 -38 -28 -46 -7 -90 -44 -90 -76 0 -44 57 -73 99 -50 12 6
30 6 51 0 l32 -9 -4 95 c-3 86 -5 98 -27 115 -29 24 -78 24 -114 1z m93 -127
c0 -39 -64 -63 -77 -28 -7 19 29 53 58 53 14 0 19 -7 19 -25z"/>
<path d="M2120 738 l0 -113 25 0 c25 0 25 1 25 83 0 78 1 83 25 94 43 19 55
-2 55 -97 l0 -82 25 5 c24 4 25 6 25 93 0 76 -3 92 -20 109 -24 24 -59 26 -86
5 -24 -18 -35 -19 -31 -3 1 7 -8 14 -20 16 -23 3 -23 2 -23 -110z"/>
</g>
</svg>
