<?xml version="1.0" standalone="no"?>
<!DOCTYPE svg PUBLIC "-//W3C//DTD SVG 20010904//EN"
 "http://www.w3.org/TR/2001/REC-SVG-20010904/DTD/svg10.dtd">
<svg version="1.0" xmlns="http://www.w3.org/2000/svg"
 width="300.000000pt" height="306.000000pt" viewBox="0 0 300.000000 306.000000"
 preserveAspectRatio="xMidYMid meet">
<metadata>
Created by potrace 1.10, written by Peter Selinger 2001-2011
</metadata>
<g transform="translate(0.000000,306.000000) scale(0.100000,-0.100000)"
fill="#000000" stroke="none">
<path d="M1595 3006 c-130 -59 -125 -266 7 -295 45 -10 93 4 117 35 22 28 28
64 11 64 -5 0 -10 -7 -10 -15 0 -9 -11 -27 -25 -40 -47 -48 -125 -25 -141 41
-10 38 3 122 24 157 15 26 25 33 58 35 47 3 67 -14 81 -68 14 -54 28 -42 31
28 3 59 -8 82 -22 46 -6 -15 -8 -15 -24 0 -26 23 -72 28 -107 12z"/>
<path d="M1275 2893 c-36 -159 -44 -183 -62 -183 -8 0 -13 -6 -10 -12 4 -14 8
-14 70 -3 38 6 52 25 18 25 -22 0 -29 15 -23 47 3 17 13 24 41 29 20 3 44 8
53 10 11 4 22 -5 33 -26 17 -32 13 -50 -11 -50 -8 0 -14 -5 -14 -10 0 -10 82
-6 118 5 19 7 14 25 -7 25 -14 0 -38 34 -92 130 -40 72 -76 130 -80 130 -4 0
-19 -53 -34 -117z m66 -13 c29 -54 25 -60 -33 -60 -23 0 -29 4 -24 16 3 9 9
33 12 55 4 21 9 39 13 39 3 0 18 -22 32 -50z"/>
<path d="M1874 2840 c-50 -62 -99 -113 -111 -116 -34 -9 -28 -17 24 -36 54
-19 64 -17 39 11 -17 18 -17 21 0 46 9 14 23 24 29 21 7 -2 31 -10 54 -17 39
-12 41 -14 41 -52 0 -37 -1 -39 -26 -33 -49 13 -20 -17 36 -36 59 -20 72 -17
47 10 -11 12 -17 36 -17 68 0 87 -13 244 -20 244 -3 0 -47 -50 -96 -110z m72
-77 c-5 -6 -76 21 -76 29 0 5 15 27 33 50 l32 40 7 -58 c3 -33 5 -60 4 -61z"/>
<path d="M851 2853 c-37 -19 -70 -78 -71 -128 0 -56 40 -117 93 -144 43 -21
53 -22 87 -12 73 22 115 103 91 181 -15 50 -47 89 -87 106 -43 18 -71 17 -113
-3z m105 -38 c34 -34 64 -102 64 -147 0 -67 -80 -102 -129 -57 -30 28 -71 116
-71 153 0 69 86 101 136 51z"/>
<path d="M2175 2840 c-3 -6 1 -13 9 -16 9 -3 16 -11 16 -17 0 -13 -121 -207
-130 -207 -3 0 -11 5 -18 12 -12 12 -28 5 -19 -9 3 -5 37 -31 76 -57 105 -73
168 -66 227 24 36 55 38 129 3 166 -22 23 -144 114 -154 114 -2 0 -7 -5 -10
-10z m119 -94 c42 -39 44 -60 12 -124 -48 -93 -97 -118 -157 -77 -39 25 -40
27 -25 50 8 12 38 59 67 104 28 45 55 81 59 81 5 0 25 -15 44 -34z"/>
<path d="M622 2691 c-30 -25 -50 -50 -46 -54 4 -4 16 0 26 10 10 9 19 14 21
12 2 -2 36 -46 76 -97 70 -90 72 -94 55 -113 -9 -10 -14 -22 -11 -25 8 -9 106
68 107 84 0 14 -16 16 -25 2 -12 -19 -22 -10 -86 73 -85 108 -84 105 -64 127
35 39 -3 26 -53 -19z"/>
<path d="M1335 2645 c-488 -92 -847 -491 -894 -995 -38 -410 150 -813 484
-1035 321 -214 716 -240 1060 -69 277 137 491 403 572 711 31 120 42 336 23
465 -53 364 -289 682 -625 839 -182 86 -431 119 -620 84z m335 -10 c420 -64
762 -377 877 -802 25 -89 27 -115 27 -283 1 -163 -2 -195 -23 -275 -65 -249
-210 -470 -403 -615 -413 -312 -975 -282 -1354 72 -349 327 -447 862 -239
1302 77 162 237 346 386 442 224 145 470 199 729 159z"/>
<path d="M1400 2610 c-204 -25 -403 -114 -562 -251 -175 -152 -315 -412 -349
-647 -18 -126 -7 -325 24 -444 104 -398 415 -692 817 -774 124 -25 333 -16
455 20 190 56 335 145 473 291 99 105 171 219 219 347 59 157 67 205 67 398 0
156 -3 185 -27 272 -116 433 -466 739 -900 787 -106 12 -121 12 -217 1z m347
-54 c121 -30 308 -126 390 -201 l48 -42 -73 -37 c-39 -20 -72 -41 -72 -47 0
-5 -4 -8 -8 -5 -5 3 -28 -8 -53 -25 -24 -16 -48 -29 -54 -29 -5 0 -23 -7 -40
-16 -59 -31 -130 -57 -155 -55 -13 0 -43 -6 -66 -15 -26 -10 -62 -15 -93 -13
-28 2 -51 2 -51 -1 0 -3 -27 -7 -59 -8 -54 -3 -61 -1 -72 20 -17 32 -28 38
-75 38 -33 0 -44 5 -62 29 l-21 29 42 7 c37 6 119 11 222 15 17 0 49 -2 71 -6
29 -4 51 -1 72 10 27 14 33 14 63 -1 78 -39 184 3 134 53 -13 13 -18 77 -15
169 0 3 -7 19 -15 35 -18 35 -51 40 -90 14 -23 -15 -27 -15 -49 -1 -35 23
-111 25 -135 3 -18 -17 -22 -17 -43 -2 -30 21 -102 20 -140 -1 -28 -17 -30
-17 -39 0 -13 23 -50 22 -93 -4 -20 -12 -36 -23 -36 -25 0 -3 9 -22 20 -44 25
-49 25 -96 1 -136 -13 -22 -16 -35 -9 -48 24 -43 10 -46 -204 -46 -112 0 -209
-4 -216 -9 -10 -6 -14 -36 -13 -112 1 -130 1 -136 1 -151 0 -7 1 -87 2 -178 2
-92 -2 -199 -9 -242 -6 -42 -10 -145 -9 -230 2 -84 4 -185 5 -225 1 -88 26
-124 94 -141 33 -9 56 -25 94 -66 30 -33 61 -57 79 -61 16 -4 55 -16 86 -27
40 -14 69 -18 93 -14 30 6 41 2 73 -23 43 -36 68 -38 123 -10 l40 20 27 -29
c46 -50 76 -62 147 -62 77 0 96 8 122 52 l19 33 -115 -3 c-64 -2 -117 -8 -119
-13 -8 -20 -30 -7 -38 22 -15 53 -37 58 -82 22 -34 -27 -45 -31 -76 -26 -24 4
-36 11 -36 22 0 9 -7 24 -14 34 -12 16 -18 17 -38 6 -13 -7 -23 -11 -23 -10 0
1 -8 -1 -18 -5 -10 -3 -39 3 -67 15 -27 11 -59 21 -72 21 -31 0 -67 26 -78 56
-5 13 -16 24 -25 24 -8 0 -15 9 -15 20 0 15 -7 20 -24 20 -14 0 -28 5 -31 10
-3 6 -17 10 -31 10 -14 0 -34 4 -44 10 -16 9 -18 30 -19 282 l-2 273 361 -3
c360 -3 360 -3 360 18 0 20 -5 21 -87 19 -58 -1 -88 2 -91 10 -3 8 23 11 87
11 84 0 91 2 91 20 0 18 -9 19 -164 22 -128 2 -162 0 -159 -9 6 -15 -13 -17
-22 -3 -9 15 -65 12 -65 -3 0 -29 25 -37 122 -37 80 0 98 -3 98 -15 0 -13 -27
-15 -180 -15 -150 0 -180 2 -180 14 0 9 12 16 27 18 40 4 52 44 28 94 -42 89
-38 138 18 217 26 37 34 58 36 99 3 63 5 68 37 68 18 0 24 5 24 23 0 45 12 67
35 67 19 0 24 -7 30 -40 4 -22 11 -42 16 -46 5 -3 9 -43 9 -88 0 -74 2 -84 17
-82 14 1 18 -8 20 -41 3 -48 -10 -63 -29 -33 -19 29 -48 26 -48 -6 0 -29 -23
-29 -28 0 -12 60 -71 73 -103 24 -34 -55 -10 -149 34 -132 18 7 24 34 7 34 -5
0 -10 5 -10 10 0 6 42 10 105 10 87 0 105 -3 105 -15 0 -11 -12 -15 -50 -15
-27 0 -50 -4 -50 -10 0 -5 -10 -10 -22 -10 -29 0 -42 -9 -57 -37 -15 -28 -14
-33 4 -33 8 0 15 7 15 17 0 14 2 14 18 2 13 -11 53 -13 190 -11 163 3 172 4
172 22 0 19 -8 20 -182 21 -106 1 -170 5 -153 9 17 4 99 8 183 9 145 1 152 2
152 21 0 19 -7 20 -100 20 -60 0 -100 4 -100 10 0 6 40 10 100 10 93 0 100 1
100 20 0 19 -7 20 -120 20 -73 0 -120 4 -120 10 0 6 47 10 120 10 113 0 120 1
120 20 0 19 -7 20 -120 20 -73 0 -120 4 -120 10 0 6 47 10 120 10 113 0 120 1
120 20 0 19 -7 20 -140 20 -85 0 -140 4 -140 10 0 17 50 23 166 18 111 -5 114
-5 114 16 0 20 -4 21 -135 21 -83 0 -135 4 -135 10 0 6 52 10 135 10 128 0
135 1 135 20 0 19 -7 20 -137 20 -101 0 -137 3 -141 13 -4 12 131 17 340 12
44 -1 77 4 97 14 16 9 43 16 59 16 54 0 194 59 317 132 87 52 194 100 207 92
4 -3 8 -146 8 -319 0 -278 -2 -314 -16 -319 -11 -4 -14 -13 -10 -30 3 -14 2
-28 -4 -31 -7 -4 -7 -12 0 -25 5 -10 10 -32 10 -49 l0 -31 -360 0 c-233 0
-360 -4 -360 -10 0 -5 0 -12 0 -15 0 -3 157 -7 350 -8 227 -1 349 -6 347 -12
-1 -6 -129 -11 -352 -12 -322 -2 -350 -3 -350 -19 0 -16 26 -17 353 -15 314 2
352 1 352 -13 0 -14 -40 -16 -356 -16 -333 0 -355 -1 -352 -17 2 -14 15 -19
56 -21 66 -4 59 -22 -9 -22 -42 0 -49 -3 -49 -20 0 -16 7 -20 35 -20 19 0 35
-4 35 -10 0 -5 -16 -10 -35 -10 -28 0 -35 -4 -35 -20 0 -16 7 -20 35 -20 19 0
35 -4 35 -10 0 -5 -16 -10 -35 -10 -28 0 -35 -4 -35 -20 0 -16 7 -20 35 -20
44 0 46 -18 3 -22 -42 -4 -50 -38 -8 -38 41 0 47 -18 8 -22 -47 -4 -51 -35 -6
-40 38 -3 36 -22 -2 -22 -18 -1 -25 -6 -25 -21 0 -14 7 -19 25 -20 14 0 25 -4
25 -10 0 -5 -11 -10 -25 -10 -18 -1 -25 -6 -25 -20 0 -19 7 -20 93 -18 73 1
92 -2 92 -13 0 -11 -20 -14 -96 -14 -86 0 -95 -2 -92 -17 3 -16 18 -18 151
-18 197 0 192 -19 -6 -23 -139 -2 -147 -4 -147 -22 0 -19 7 -20 126 -20 81 0
123 -4 119 -10 -4 -6 -56 -10 -125 -10 -113 0 -118 -1 -113 -20 5 -19 14 -20
124 -20 91 0 119 3 119 13 0 24 25 67 40 69 17 2 46 4 73 7 9 0 17 6 17 11 0
6 -12 9 -26 8 -15 -2 -29 3 -31 10 -3 8 8 12 36 12 38 0 40 2 47 35 3 20 13
37 24 40 10 3 25 16 33 29 11 16 26 23 48 24 24 1 43 12 75 44 24 24 43 50 44
59 0 9 6 22 14 28 17 14 69 111 60 111 -4 0 -1 6 5 14 7 9 14 56 15 115 2 72
8 107 20 125 11 17 16 47 16 91 0 40 6 78 15 95 13 25 15 68 10 285 -4 157 -2
255 4 255 14 0 78 -94 116 -171 29 -60 43 -97 85 -234 5 -16 12 -52 15 -78 9
-63 10 -287 2 -312 -3 -11 -8 -36 -11 -55 -3 -19 -10 -50 -15 -69 -6 -19 -8
-38 -5 -42 3 -5 1 -9 -3 -9 -5 0 -15 -17 -21 -37 -16 -46 -84 -196 -93 -203
-4 -3 -27 -32 -52 -65 -90 -120 -187 -206 -313 -276 -43 -24 -83 -45 -89 -46
-5 -1 -43 -14 -84 -29 -149 -52 -268 -65 -423 -45 -215 28 -426 130 -574 277
-236 236 -354 591 -300 904 55 326 223 579 487 737 104 62 237 114 340 132 74
14 321 5 396 -13z m-457 -201 l0 -115 25 0 c14 0 25 -4 25 -10 0 -6 -30 -10
-70 -10 -40 0 -70 4 -70 10 0 6 11 10 25 10 25 0 25 1 25 90 0 88 0 90 -24 90
-37 0 -39 25 -3 27 17 1 35 7 41 13 22 22 26 6 26 -105z m180 95 c24 -24 26
-53 4 -74 -14 -15 -14 -18 5 -42 27 -35 26 -57 -3 -90 -44 -52 -136 -26 -136
37 0 16 9 37 20 47 18 17 19 20 5 32 -21 18 -19 66 5 90 11 11 33 20 50 20 17
0 39 -9 50 -20z m169 1 c61 -61 38 -203 -36 -232 -47 -17 -100 24 -73 56 15
18 42 2 33 -21 -8 -21 44 -18 55 4 6 9 13 33 17 52 7 34 7 35 -12 18 -44 -40
-103 -9 -103 53 0 72 74 115 119 70z m141 -96 l0 -115 25 0 c14 0 25 -4 25
-10 0 -6 -28 -10 -65 -10 -37 0 -65 4 -65 10 0 6 9 10 20 10 18 0 20 7 20 80
0 44 0 83 0 88 0 4 -11 8 -25 10 -34 5 -32 21 5 29 17 3 33 10 36 14 17 28 24
-3 24 -106z m-540 -217 c0 -17 -463 -15 -468 2 -3 7 74 10 232 10 182 0 236
-3 236 -12z m-130 -58 c0 -6 -63 -10 -170 -10 -107 0 -170 4 -170 10 0 6 63
10 170 10 107 0 170 -4 170 -10z m260 0 c8 -5 12 -10 10 -12 -12 -8 -180 4
-180 13 0 12 151 12 170 -1z m-310 -65 c-37 -21 -290 -21 -290 0 0 13 24 15
158 15 141 -1 154 -2 132 -15z m-20 -60 c0 -13 -22 -15 -135 -15 -113 0 -135
2 -135 15 0 13 22 15 135 15 113 0 135 -2 135 -15z m-2 -63 c3 -10 -25 -12
-129 -10 -97 2 -134 6 -137 16 -3 10 25 12 129 10 97 -2 134 -6 137 -16z m-43
-62 c-4 -6 -53 -10 -116 -10 -66 0 -109 4 -109 10 0 6 45 10 116 10 74 0 113
-4 109 -10z m-25 -60 c0 -6 -40 -10 -100 -10 -60 0 -100 4 -100 10 0 6 40 10
100 10 60 0 100 -4 100 -10z m-10 -60 c0 -6 -38 -10 -95 -10 -57 0 -95 4 -95
10 0 6 38 10 95 10 57 0 95 -4 95 -10z m20 -60 c0 -6 -42 -10 -105 -10 -63 0
-105 4 -105 10 0 6 42 10 105 10 63 0 105 -4 105 -10z m20 -59 c0 -11 -220
-20 -226 -10 -2 3 -1 9 3 13 10 10 223 7 223 -3z m-70 -63 c0 -9 -20 -13 -73
-12 -90 2 -89 2 -82 14 9 15 155 13 155 -2z m701 -259 c-6 -24 -11 -62 -11
-83 l0 -39 235 7 235 6 0 -30 0 -30 -233 0 -232 0 3 -78 c3 -61 1 -81 -12 -91
-30 -25 -36 -2 -36 149 0 148 7 189 37 223 22 24 25 17 14 -34z m579 41 c0 -6
-98 -10 -275 -10 -177 0 -275 4 -275 10 0 6 98 10 275 10 177 0 275 -4 275
-10z m0 -60 c0 -6 -100 -10 -280 -10 -180 0 -280 4 -280 10 0 6 100 10 280 10
180 0 280 -4 280 -10z m-25 -60 c-4 -6 -105 -10 -271 -10 -169 0 -264 4 -264
10 0 6 97 10 271 10 177 0 268 -3 264 -10z m-70 -120 c-4 -6 -93 -10 -236 -10
-146 0 -229 4 -229 10 0 6 85 10 236 10 154 0 233 -3 229 -10z m-415 -65 c-14
-16 -46 -20 -54 -6 -9 13 5 21 37 21 25 0 28 -2 17 -15z m370 6 c0 -14 -55
-21 -155 -21 -70 0 -96 4 -105 15 -11 13 4 15 124 15 75 0 136 -4 136 -9z
m-342 -90 c2 -40 0 -52 -10 -49 -8 3 -14 25 -16 57 -2 40 0 52 10 49 8 -3 14
-25 16 -57z m80 7 c-2 -28 -8 -53 -13 -55 -8 -2 -12 72 -5 105 0 1 5 2 11 2 6
0 9 -20 7 -52z m-118 17 c0 -8 -9 -15 -20 -15 -11 0 -20 7 -20 15 0 8 9 15 20
15 11 0 20 -7 20 -15z m80 -35 c0 -40 -3 -48 -15 -44 -10 4 -15 20 -15 50 0
32 4 44 15 44 11 0 15 -12 15 -50z m170 35 c-8 -10 -31 -15 -66 -15 -41 0 -54
4 -54 15 0 12 14 15 66 15 58 0 65 -2 54 -15z m-50 -60 c0 -10 -11 -15 -35
-15 -24 0 -35 5 -35 15 0 10 11 15 35 15 24 0 35 -5 35 -15z m-195 -245 c-28
-12 -165 -12 -165 0 0 6 37 10 93 9 60 0 85 -3 72 -9z"/>
<path d="M2120 2005 c-25 -13 -62 -41 -83 -63 -46 -47 -63 -46 -116 10 -30 33
-45 41 -85 45 -44 5 -48 4 -43 -13 3 -10 13 -44 22 -76 9 -31 22 -59 30 -62
11 -4 12 -11 4 -36 -9 -24 -17 -30 -38 -30 -48 0 -119 -27 -171 -64 -28 -20
-65 -39 -81 -43 -41 -8 -30 -18 99 -84 88 -45 111 -53 155 -52 51 1 180 41
223 69 11 8 45 21 75 30 88 25 86 24 66 35 -10 6 -32 8 -50 5 -22 -4 -26 -3
-13 2 19 8 19 9 -3 15 -13 3 -20 10 -16 16 8 14 35 14 35 1 0 -5 5 -10 11 -10
21 0 -17 137 -40 143 -11 3 -8 7 12 15 29 12 60 70 73 137 8 42 -2 44 -66 10z
m10 -56 c0 -6 -12 -33 -27 -60 -24 -42 -26 -52 -17 -78 15 -39 7 -86 -12 -70
-8 6 -14 15 -14 20 0 18 -50 61 -65 55 -8 -3 -15 -1 -15 4 0 19 -27 10 -55
-20 -33 -35 -45 -31 -45 14 0 19 -7 47 -15 62 -18 36 -19 74 -2 74 7 0 27 -14
44 -30 61 -59 90 -57 171 12 34 30 52 35 52 17z m-145 -192 c6 1 12 12 15 25
7 26 15 17 25 -29 l7 -33 -46 17 c-50 19 -52 23 -34 56 12 22 12 21 18 -8 3
-16 10 -29 15 -28z m-154 -42 c64 -60 32 -60 -36 0 -37 33 -45 45 -31 45 10 0
41 -20 67 -45z m70 0 c32 -30 42 -45 31 -45 -24 1 -120 90 -97 90 10 0 40 -20
66 -45z m83 -14 c17 -17 24 -31 17 -31 -14 0 -101 70 -101 82 0 14 53 -18 84
-51z m-191 -29 c-20 -5 -96 60 -81 69 7 5 28 -7 53 -29 22 -20 34 -38 28 -40z
m-81 23 c25 -21 26 -25 11 -25 -11 0 -30 11 -43 25 -14 15 -18 25 -11 25 7 0
26 -11 43 -25z m353 -5 c25 -16 27 -20 10 -20 -24 0 -78 39 -55 40 8 0 29 -9
45 -20z m-365 -40 c0 -14 -49 -44 -58 -35 -4 3 4 15 17 26 26 21 41 24 41 9z
m70 3 c0 -13 -64 -63 -80 -63 -9 0 -1 14 22 35 36 33 58 44 58 28z m70 0 c0
-14 -99 -93 -104 -84 -3 5 14 27 39 50 42 39 65 51 65 34z m70 -1 c0 -13 -110
-104 -121 -100 -6 2 14 27 45 56 51 49 76 63 76 44z m70 1 c0 -12 -92 -88
-115 -96 -11 -4 5 17 37 48 52 51 78 67 78 48z m70 -2 c0 -9 -71 -61 -85 -61
-5 0 6 16 25 35 32 33 60 45 60 26z"/>
<path d="M1136 1435 c-9 -9 -21 -35 -27 -58 -7 -23 -17 -48 -22 -55 -5 -7 -7
-15 -4 -18 10 -10 39 5 32 16 -8 14 15 88 33 102 21 18 38 -10 56 -91 l16 -66
-33 -27 -32 -28 -32 35 c-18 19 -33 32 -33 29 0 -2 -20 7 -45 21 -76 45 -106
16 -65 -65 l20 -38 -51 -11 c-113 -24 -143 -69 -73 -110 43 -26 44 -26 44 -1
0 14 -7 20 -24 20 -31 0 -51 23 -33 38 16 14 59 30 109 41 36 9 40 7 64 -25
l26 -34 -25 -29 c-14 -17 -26 -29 -28 -27 -2 2 -19 6 -36 9 -42 8 -44 -9 -2
-18 16 -4 28 -10 27 -13 -22 -39 -38 -87 -36 -100 5 -26 44 -26 84 -2 19 12
36 21 38 19 1 -2 8 -29 15 -60 29 -137 91 -132 122 11 6 27 12 50 15 50 2 0
18 -9 36 -20 18 -11 43 -20 56 -20 18 0 22 5 21 28 -1 16 -3 20 -6 10 -7 -27
-41 -20 -101 20 -19 13 -5 60 19 67 24 8 49 -11 49 -36 0 -23 20 -35 31 -18 5
9 1 20 -12 32 -11 11 -19 20 -17 22 2 2 32 10 68 19 65 17 100 38 100 62 0 23
-51 53 -111 65 -32 6 -56 15 -53 20 3 5 0 9 -5 9 -6 0 -11 -5 -11 -11 0 -7
-10 -9 -27 -4 -34 8 -30 5 -38 35 -5 23 -1 28 38 48 24 12 49 22 56 22 16 0
13 -26 -5 -45 -12 -11 -14 -19 -6 -27 18 -18 29 0 28 44 -1 40 -3 43 -29 41
-15 -1 -40 -11 -56 -22 l-28 -21 -12 58 c-11 58 -43 122 -60 122 -5 0 -17 -7
-25 -15z m-95 -157 c31 -17 39 -28 39 -50 0 -17 -5 -28 -14 -28 -8 0 -21 -3
-30 -6 -10 -4 -21 7 -35 35 -38 73 -26 86 40 49z m79 -76 c-27 -4 -34 2 -26
24 6 15 8 15 27 -2 l21 -19 -22 -3z m100 18 c0 -15 -7 -20 -27 -20 l-28 0 25
20 c31 24 30 24 30 0z m-22 -70 l33 -39 -35 -38 -35 -38 -35 34 c-20 19 -36
39 -36 45 0 11 61 77 69 75 4 0 21 -18 39 -39z m29 25 c3 -9 3 -19 -1 -22 -7
-7 -36 16 -36 28 0 15 30 10 37 -6z m-147 -20 c0 -31 -10 -31 -33 0 -18 25
-18 25 8 25 20 0 25 -5 25 -25z m190 6 c-16 -32 -30 -34 -30 -7 0 19 5 26 20
26 17 0 19 -3 10 -19z m171 -21 c10 -6 19 -17 19 -24 0 -15 -57 -42 -117 -55
-40 -8 -43 -7 -66 22 l-24 32 25 31 25 32 59 -14 c33 -8 68 -19 79 -24z m-361
-65 c0 -18 -5 -25 -20 -25 -24 0 -25 8 -3 32 21 23 23 23 23 -7z m184 0 c16
-24 16 -25 -4 -25 -15 0 -20 7 -20 25 0 14 2 25 4 25 2 0 11 -11 20 -25z
m-200 -41 c9 -4 16 -18 16 -34 0 -21 -8 -34 -34 -49 -65 -41 -82 -22 -46 49
20 39 33 46 64 34z m66 -23 c-26 -21 -40 -19 -40 5 0 9 11 14 33 14 l32 0 -25
-19z m90 -1 c0 -11 -4 -20 -8 -20 -5 0 -17 9 -27 20 -18 20 -17 20 8 20 20 0
27 -5 27 -20z m-28 -24 l27 -24 -15 -65 c-8 -35 -21 -73 -29 -83 -12 -17 -15
-17 -29 -4 -9 9 -23 46 -33 84 l-17 69 28 23 c33 29 34 29 68 0z"/>
<path d="M1140 1116 c0 -8 4 -17 9 -20 11 -7 33 18 24 27 -12 12 -33 7 -33 -7z"/>
<path d="M1392 2441 c-21 -13 -10 -54 18 -68 29 -14 50 -2 50 31 0 39 -36 58
-68 37z"/>
<path d="M1381 2316 c-7 -8 -11 -27 -9 -43 2 -24 8 -28 36 -31 59 -6 84 41 40
72 -28 20 -52 20 -67 2z"/>
<path d="M1566 2428 c-21 -29 -20 -51 2 -78 16 -19 22 -21 40 -11 17 9 22 21
22 49 0 60 -35 82 -64 40z"/>
<path d="M2460 2635 c0 -3 6 -15 13 -26 11 -19 5 -27 -73 -100 -80 -74 -110
-93 -110 -69 0 6 -7 10 -15 10 -8 0 -15 -3 -15 -6 0 -8 161 -184 169 -184 4 0
23 14 44 31 39 32 42 61 4 34 -34 -24 -64 -18 -102 20 -19 20 -35 39 -35 44 0
5 20 25 44 45 39 31 45 34 57 20 10 -12 10 -22 1 -47 -6 -17 -9 -33 -7 -36 7
-6 95 80 95 92 0 5 -7 6 -15 3 -8 -3 -21 -8 -27 -11 -7 -2 -22 2 -32 10 -19
15 -19 16 20 56 l39 40 33 -35 c35 -39 41 -74 16 -110 -27 -42 2 -38 36 4 36
46 42 34 -65 153 -54 60 -75 78 -75 62z"/>
<path d="M468 2550 c-21 -27 -38 -54 -38 -60 0 -15 17 -12 24 5 3 8 11 15 18
15 15 -1 78 -56 78 -67 -1 -5 -20 -29 -43 -55 l-42 -47 -38 34 c-32 31 -35 38
-25 55 7 10 9 22 5 26 -4 4 -8 5 -10 3 -2 -2 -22 -27 -45 -56 -24 -28 -38 -54
-33 -57 5 -3 14 1 21 9 7 8 16 15 21 15 12 0 174 -141 177 -155 2 -7 -2 -16
-7 -20 -15 -9 -14 -25 2 -24 15 0 91 98 83 106 -3 4 -14 -1 -23 -10 -17 -14
-21 -13 -62 22 l-45 38 39 49 c22 27 40 51 42 53 1 2 23 -14 48 -34 44 -37 45
-39 30 -61 -30 -47 9 -25 49 27 40 52 43 70 8 48 -18 -11 -29 -5 -99 54 -102
85 -107 91 -88 107 14 12 12 31 -3 29 -4 0 -24 -22 -44 -49z"/>
<path d="M2708 2354 c-4 -4 -5 -17 -2 -30 5 -20 -3 -28 -85 -68 -95 -48 -119
-54 -139 -34 -22 22 -22 1 0 -50 26 -58 38 -66 38 -23 0 27 8 34 97 80 53 28
97 50 99 49 1 -2 -40 -47 -92 -100 -52 -54 -94 -102 -94 -108 0 -11 9 -10 175
15 49 8 91 12 93 10 2 -2 -42 -27 -98 -55 -103 -52 -110 -53 -123 -16 -2 5 -8
7 -14 3 -6 -4 0 -27 19 -64 31 -61 53 -82 43 -40 -6 23 1 28 91 76 53 28 103
51 110 51 7 0 17 -8 23 -17 21 -38 22 -1 1 41 -24 51 -18 50 -145 32 -49 -7
-92 -12 -94 -9 -3 2 30 39 73 82 l77 78 -23 52 c-13 29 -26 49 -30 45z"/>
<path d="M269 2237 c-70 -47 -75 -138 -12 -208 78 -86 209 -66 244 38 41 126
-121 245 -232 170z m136 -45 c27 -15 57 -41 68 -59 16 -29 17 -34 3 -67 -24
-57 -74 -67 -151 -28 -70 34 -102 83 -84 130 22 59 83 69 164 24z"/>
<path d="M2870 1948 c0 -34 -126 -145 -173 -152 -45 -7 -57 -2 -57 25 0 10 -5
19 -11 19 -8 0 -9 -11 -5 -32 4 -18 9 -52 13 -75 6 -48 20 -57 25 -16 3 24 9
29 46 36 36 7 56 4 119 -19 41 -15 80 -36 86 -46 20 -31 29 -20 22 25 -9 60
-15 77 -26 77 -5 0 -9 -11 -9 -25 0 -14 -4 -25 -8 -25 -10 0 -105 31 -112 37
-6 5 89 93 101 93 5 0 9 -9 9 -20 0 -11 5 -20 10 -20 12 0 12 0 -1 77 -11 60
-29 87 -29 41z"/>
<path d="M96 1683 c-4 -49 -9 -105 -11 -125 -4 -29 -2 -38 9 -38 8 0 16 10 18
23 2 12 6 21 11 21 4 -1 57 -5 117 -9 108 -7 110 -7 110 -31 0 -13 4 -24 9
-24 5 0 12 30 16 68 3 37 8 92 11 123 l6 57 -52 11 c-62 13 -60 13 -60 2 0 -5
17 -18 38 -28 35 -17 37 -21 40 -72 2 -30 -1 -58 -6 -63 -5 -5 -32 -6 -61 -2
-38 5 -51 11 -51 23 0 22 19 41 42 41 10 0 18 6 18 14 0 11 -17 15 -65 18 -67
3 -85 -8 -42 -27 14 -6 23 -21 25 -39 4 -28 3 -29 -35 -23 -21 4 -46 7 -55 7
-21 0 -23 26 -8 82 9 32 17 39 50 48 57 15 49 30 -14 30 l-54 0 -6 -87z"/>
<path d="M350 1456 c0 -22 -7 -25 -107 -45 -132 -26 -133 -26 -133 -1 0 11 -6
20 -14 20 -11 0 -13 -7 -6 -32 4 -18 11 -50 15 -70 3 -21 11 -38 17 -38 6 0 8
11 6 25 -6 30 -6 31 53 39 l46 7 12 -62 c7 -34 9 -65 4 -69 -4 -4 -28 -10 -51
-14 -38 -6 -44 -4 -49 14 -9 34 -26 23 -19 -12 4 -18 9 -50 13 -70 7 -44 23
-51 23 -10 0 28 2 29 93 46 50 10 104 20 120 23 23 5 27 2 27 -16 0 -12 6 -21
16 -21 11 0 14 6 9 21 -4 11 -10 41 -13 65 -7 45 -27 62 -27 22 0 -22 -10 -27
-81 -41 -31 -6 -32 -5 -38 39 -3 24 -8 55 -12 68 -5 21 -1 24 48 34 60 11 68
9 68 -19 0 -10 5 -19 10 -19 13 0 13 27 -1 90 -11 52 -29 68 -29 26z"/>
<path d="M2715 1456 c-83 -36 -113 -141 -59 -206 76 -90 213 -81 259 16 33 70
3 141 -75 182 -50 25 -81 27 -125 8z m140 -64 c96 -56 43 -174 -70 -156 -58 9
-114 34 -125 55 -23 43 -8 93 35 118 27 16 121 5 160 -17z"/>
<path d="M2578 1133 c-29 -71 -28 -93 2 -53 l18 24 44 -19 c23 -10 47 -22 52
-27 14 -12 -24 -49 -48 -46 -44 6 -29 -15 28 -38 64 -26 79 -25 53 4 -15 16
-24 72 -13 72 2 0 25 -9 51 -20 43 -19 47 -22 41 -48 -4 -15 -15 -38 -25 -52
-16 -21 -26 -25 -60 -22 -23 1 -41 -2 -41 -7 0 -12 92 -43 100 -34 16 18 92
214 86 221 -6 6 -21 -10 -29 -31 -1 -5 -52 13 -112 40 -103 46 -110 51 -107
76 5 46 -12 29 -40 -40z"/>
<path d="M430 1124 c0 -3 5 -14 10 -25 10 -18 1 -24 -96 -70 -59 -27 -114 -47
-121 -45 -23 9 -14 49 19 83 17 18 29 35 26 38 -6 6 -98 -44 -98 -53 0 -4 21
-54 46 -113 l46 -106 54 20 c58 21 64 39 10 30 -40 -6 -76 11 -76 36 0 13 28
31 106 67 l106 48 17 -23 c10 -13 20 -20 23 -15 7 12 -50 134 -62 134 -6 0
-10 -3 -10 -6z"/>
<path d="M2499 794 c-17 -21 0 -48 33 -52 28 -3 42 18 33 49 -8 23 -48 25 -66
3z"/>
<path d="M482 788 c-27 -27 -6 -68 35 -68 16 0 24 7 29 25 11 43 -34 73 -64
43z"/>
<path d="M2220 625 c-46 -40 -86 -78 -88 -84 -5 -14 15 -15 23 -1 12 19 23 9
95 -85 70 -91 72 -96 56 -114 -10 -11 -14 -21 -9 -24 8 -5 185 137 191 153 4
12 -48 90 -60 90 -6 0 -7 -8 -3 -17 5 -10 10 -33 13 -51 4 -27 -1 -38 -33 -67
-20 -19 -40 -35 -44 -35 -8 0 -71 84 -71 94 0 3 9 10 21 16 16 9 26 8 46 -5
40 -27 37 -11 -8 48 -44 56 -68 67 -47 21 10 -21 8 -28 -9 -45 l-20 -21 -33
41 c-36 47 -34 55 26 92 l34 21 36 -22 c20 -11 39 -19 41 -16 5 5 -58 86 -67
85 -3 0 -43 -33 -90 -74z"/>
<path d="M677 660 c-48 -38 -42 -85 21 -168 21 -27 24 -38 16 -60 -13 -39 -64
-43 -99 -8 -27 27 -34 81 -15 116 20 37 -7 28 -43 -15 -44 -52 -45 -59 -12
-51 19 5 25 2 25 -9 0 -41 63 -95 110 -95 32 0 80 53 80 87 0 16 -16 51 -36
81 -45 67 -44 106 2 110 55 5 92 -65 63 -120 -20 -37 2 -33 36 7 39 46 43 59
15 52 -13 -3 -20 0 -20 10 0 24 -65 83 -93 83 -13 0 -36 -9 -50 -20z"/>
<path d="M2073 512 c-3 -14 -11 -18 -27 -15 -67 13 -134 -78 -121 -162 13 -87
89 -154 160 -141 70 14 119 85 100 146 -10 31 -19 16 -20 -32 -2 -75 -87 -116
-135 -65 -28 28 -56 83 -65 125 -21 98 81 146 143 67 31 -40 36 -12 7 45 -28
54 -34 60 -42 32z"/>
<path d="M895 506 c-41 -18 -82 -68 -95 -116 -34 -127 107 -234 190 -145 29
31 18 46 -13 17 -33 -31 -67 -35 -104 -13 -46 29 -51 66 -17 141 15 34 38 70
52 81 32 25 77 24 102 -1 21 -21 23 -31 20 -92 -3 -66 16 -43 56 66 6 15 3 17
-14 12 -15 -5 -24 -1 -32 14 -12 23 -67 50 -97 50 -10 -1 -32 -7 -48 -14z"/>
<path d="M1124 429 c-3 -6 3 -13 15 -16 27 -7 27 -8 -8 -130 -35 -121 -35
-123 -61 -116 -11 3 -20 0 -20 -5 0 -6 19 -16 41 -22 23 -6 52 -16 65 -20 19
-7 24 -6 24 5 0 8 -6 15 -14 15 -27 0 -26 16 7 131 29 99 36 114 54 114 39 0
35 14 -7 25 -23 6 -53 15 -66 20 -15 6 -26 5 -30 -1z"/>
<path d="M1803 406 c-29 -5 -53 -13 -53 -18 0 -4 6 -8 13 -8 28 -1 40 -22 53
-91 7 -41 13 -81 13 -89 1 -8 -43 28 -96 81 -93 90 -100 95 -132 90 -19 -3
-36 -12 -39 -20 -3 -10 1 -12 17 -8 27 7 29 3 46 -95 21 -117 20 -145 -6 -153
-38 -12 -5 -24 45 -17 48 7 78 32 37 32 -27 0 -32 10 -51 117 l-17 94 112
-111 c62 -62 115 -108 118 -104 2 5 -4 56 -14 114 -24 136 -24 154 3 172 30
20 12 25 -49 14z"/>
<path d="M1285 382 c-9 -9 6 -22 26 -22 18 0 20 -5 15 -37 -3 -21 -8 -77 -12
-125 -6 -84 -7 -88 -30 -88 -13 0 -24 -4 -24 -9 0 -8 238 -36 245 -29 1 2 6
27 10 56 5 35 3 52 -4 52 -6 0 -11 -6 -11 -14 0 -7 -9 -25 -21 -40 -19 -24
-27 -27 -73 -24 l-51 3 3 60 c2 33 5 61 7 63 1 1 14 -2 29 -7 19 -8 26 -18 26
-36 0 -38 17 -30 24 13 9 54 7 102 -3 102 -5 0 -12 -11 -15 -25 -6 -22 -49
-46 -61 -33 -2 2 -1 30 2 61 l6 58 46 -7 c51 -7 81 -33 81 -70 0 -41 20 -26
22 16 0 22 1 46 2 53 1 12 -32 17 -181 30 -29 2 -55 2 -58 -1z"/>
</g>
</svg>
