<?xml version="1.0" standalone="no"?>
<!DOCTYPE svg PUBLIC "-//W3C//DTD SVG 20010904//EN"
 "http://www.w3.org/TR/2001/REC-SVG-20010904/DTD/svg10.dtd">
<svg version="1.0" xmlns="http://www.w3.org/2000/svg"
 width="120.000000pt" height="63.000000pt" viewBox="0 0 120.000000 63.000000"
 preserveAspectRatio="xMidYMid meet">
<metadata>
Created by potrace 1.10, written by Peter Selinger 2001-2011
</metadata>
<g transform="translate(0.000000,63.000000) scale(0.100000,-0.100000)"
fill="#000000" stroke="none">
<path d="M535 601 c-16 -10 -41 -30 -54 -45 -24 -25 -28 -26 -143 -26 -131 0
-171 -11 -206 -55 -19 -24 -122 -323 -122 -354 0 -8 44 -11 147 -11 80 0 144
-3 140 -6 -3 -4 19 -26 50 -50 l56 -44 87 0 c123 0 146 7 199 58 l46 44 125
-1 c186 -2 184 -5 275 255 30 86 55 158 55 160 0 2 -70 4 -155 4 -87 0 -154 4
-152 9 1 5 -19 25 -45 45 l-47 36 -113 0 c-93 0 -118 -3 -143 -19z m280 -23
c24 -18 44 -41 45 -50 0 -16 14 -18 151 -18 l150 0 -7 -22 c-3 -13 -28 -86
-55 -163 -37 -108 -56 -146 -79 -168 -29 -26 -34 -27 -146 -27 -63 0 -124 5
-135 10 -12 7 -19 7 -19 1 0 -19 -65 -84 -97 -97 -19 -9 -70 -14 -124 -14 -91
0 -93 1 -135 36 -24 19 -44 42 -44 49 0 12 -28 15 -144 17 l-144 3 48 153 c67
215 76 222 260 222 l120 0 40 40 c48 48 80 58 188 59 78 1 85 -1 127 -31z"/>
<path d="M552 573 c-19 -9 -43 -29 -55 -45 -21 -28 -21 -28 -139 -28 -177 0
-198 -13 -243 -149 -26 -79 -27 -85 -11 -97 16 -11 16 -13 -5 -16 -16 -2 -25
-14 -34 -45 l-13 -43 148 0 147 0 -4 -23 c-4 -19 4 -31 35 -55 37 -29 46 -32
113 -32 41 0 90 5 111 10 38 11 108 79 108 105 0 19 10 19 38 -1 18 -13 45
-15 132 -12 141 4 142 5 210 196 27 79 50 148 50 153 0 5 -67 9 -151 9 -145 0
-151 1 -146 19 3 15 -5 27 -34 45 -34 23 -48 26 -131 26 -66 0 -103 -5 -126
-17z m224 -30 c22 -14 25 -21 19 -50 l-6 -33 156 0 c137 0 155 -2 147 -15 -7
-13 -41 -16 -210 -18 -111 -1 -202 2 -202 6 0 5 5 17 10 28 10 18 7 19 -38 19
-46 0 -48 -1 -61 -37 l-13 -36 43 -36 c24 -20 56 -47 72 -61 l28 -25 -27 -73
c-18 -49 -38 -82 -61 -102 -32 -28 -38 -30 -121 -30 -70 0 -92 4 -112 19 -21
17 -23 22 -12 46 7 14 12 28 12 30 0 3 -70 5 -156 5 -120 0 -155 3 -152 13 4
9 57 13 212 15 203 2 207 2 196 -17 -15 -30 -14 -31 35 -31 42 0 46 2 60 37
13 31 14 39 2 48 -7 5 -41 32 -75 59 l-61 48 24 67 c17 46 36 77 64 104 40 36
41 37 121 37 58 0 88 -5 106 -17z m-343 -97 c22 -17 22 -18 -9 -101 -37 -99
-46 -105 -163 -105 -66 1 -102 5 -115 15 -17 13 -17 16 9 94 16 49 35 87 48
96 28 20 204 21 230 1z m277 -50 c14 -2 30 -5 37 -5 6 -1 9 -10 6 -23 -12 -50
-23 -50 -79 -2 -44 38 -52 49 -43 61 10 11 15 11 33 -6 12 -11 33 -23 46 -25z
m170 -1 c0 -2 -13 -41 -30 -87 -16 -45 -30 -85 -30 -90 0 -10 81 -10 97 0 6 4
26 47 43 95 l32 87 39 0 c21 0 39 -2 39 -4 0 -18 -65 -185 -78 -198 -12 -15
-33 -18 -116 -18 -73 0 -107 4 -122 15 l-21 14 29 83 c15 46 31 89 33 96 4 11
85 18 85 7z m64 -14 c7 -11 -29 -107 -47 -126 -28 -28 -31 -2 -8 70 7 22 14
46 16 53 5 14 31 16 39 3z m-458 -89 c11 -10 32 -27 47 -36 15 -10 27 -27 27
-37 0 -24 -5 -24 -44 0 -17 10 -45 22 -63 26 -32 6 -35 20 -10 53 13 16 20 15
43 -6z"/>
<path d="M305 423 l-50 -4 -20 -62 c-10 -34 -21 -68 -23 -74 -2 -9 12 -13 51
-13 l54 0 27 74 c28 81 30 87 19 84 -5 -1 -31 -3 -58 -5z m11 -55 c-8 -43 -18
-58 -38 -58 -15 0 -18 5 -13 23 4 12 9 30 11 40 3 9 14 17 25 17 15 0 18 -5
15 -22z"/>
</g>
</svg>
